<?xml version="1.0" encoding="UTF-8"?>
<svg width="16px" height="16px" viewBox="0 0 16 16" version="1.1" xmlns="http://www.w3.org/2000/svg" xmlns:xlink="http://www.w3.org/1999/xlink">
    <!-- Generator: Sketch 52.6 (67491) - http://www.bohemiancoding.com/sketch -->
    <title>edit</title>
    <desc>Created with Sketch.</desc>
    <g id="Page-1" stroke="none" stroke-width="1" fill="none" fill-rule="evenodd">
        <g id="Artboard" transform="translate(-282.000000, -182.000000)" fill="#282D32" fill-rule="nonzero">
            <g id="edit" transform="translate(282.000000, 182.000000)">
                <path d="M14.1627499,0.644066384 C13.3025611,-0.214688795 11.9095926,-0.214688795 11.0494039,0.644066384 L10.2700688,1.42774589 L1.97410314,9.7200918 L1.95647237,9.73786203 C1.95220241,9.74213236 1.95220241,9.74667825 1.94765698,9.74667825 C1.9388416,9.75990258 1.92561852,9.77298913 1.91694087,9.78621347 C1.91694087,9.79062158 1.91239544,9.79062158 1.91239544,9.79502969 C1.90358006,9.80825402 1.8993101,9.81707025 1.89035698,9.83029458 C1.88608702,9.83470269 1.88608702,9.83897306 1.88167933,9.84351891 C1.87727164,9.85674325 1.87286394,9.86555947 1.86831852,9.8787838 C1.86831852,9.88305417 1.86404856,9.88305417 1.86404856,9.88760003 L0.0234237781,15.4230857 C-0.0305704531,15.5806756 0.0104761995,15.7552093 0.129070663,15.872162 C0.212403622,15.9544008 0.324799777,16.0004105 0.441741356,15.9999972 C0.489537243,15.9991707 0.536919936,15.991732 0.582649779,15.9779567 L6.11333947,14.1327489 C6.11760944,14.1327489 6.11760944,14.1327489 6.12215486,14.1284785 C6.13606663,14.1243459 6.14942744,14.1184225 6.16168636,14.1107083 C6.16512986,14.1102951 6.16816013,14.1087798 6.17063947,14.106438 C6.18372482,14.0976217 6.20135559,14.0886678 6.21457867,14.0798515 C6.22766398,14.0711731 6.24102482,14.0579487 6.2542479,14.0491325 C6.25865559,14.0445867 6.26292552,14.0445867 6.26292552,14.0403163 C6.26747097,14.0359082 6.27628636,14.0316378 6.28069405,14.0226838 L15.3559948,4.94652065 C16.2146684,4.08625021 16.2146684,2.69314933 15.3559948,1.83301663 L14.1627499,0.644066384 Z M5.6515669,13.4736842 L2.52631579,10.3485335 L10.3484331,2.52631579 L13.4736842,5.65146655 L5.6515669,13.4736842 Z M2.24859532,10.9473684 L5.05263158,13.7544341 L0.842105263,15.1578947 L2.24859532,10.9473684 Z M14.7422687,4.54679469 L14.2406729,5.05263158 L10.9473684,1.76254796 L11.4538485,1.25685896 C12.0078388,0.703854031 12.9057975,0.703854031 13.4599358,1.25685896 L14.7468569,2.5425215 C15.2967031,3.09848368 15.294631,3.99349405 14.7422687,4.54679469 Z" id="Shape"></path>
            </g>
        </g>
    </g>
</svg>