<?xml version="1.0" encoding="UTF-8"?>
<svg width="149px" height="39px" viewBox="0 0 149 39" version="1.1" xmlns="http://www.w3.org/2000/svg" xmlns:xlink="http://www.w3.org/1999/xlink">
    <!-- Generator: Sketch 52.6 (67491) - http://www.bohemiancoding.com/sketch -->
    <title>logo</title>
    <desc>Created with Sketch.</desc>
    <g id="Page-1" stroke="none" stroke-width="1" fill="none" fill-rule="evenodd">
        <g id="Artboard" transform="translate(-29.000000, -16.000000)">
            <g id="logo" transform="translate(29.000000, 16.000000)">
                <g id="Group">
                    <path d="M3.74832383,12.6823471 L12.0399434,12.6823471 L24.2518859,26.3176529 L15.9602664,26.3176529 L3.74832383,12.6823471 Z M12.7740863,11 L0,11 L15.2261235,28 L28,28 L12.7740863,11 Z" id="Fill-4" fill="#4D5AFF"></path>
                    <path d="M26,0 L12.9595679,10 L0,10 L2.85365854,7.81237028 C9.4526109,2.75217933 17.605009,0 26,0" id="Fill-5" fill="#B4B8F9"></path>
                    <path d="M23.7482958,12.6823471 L32.0377556,12.6823471 L44.2517042,26.3176529 L35.9601468,26.3176529 L23.7482958,12.6823471 Z M32.7739906,11 L20,11 L35.2260094,28 L48,28 L32.7739906,11 Z" id="Fill-6" fill="#4D5AFF"></path>
                    <path d="M48,29 L45.146152,31.1876297 C41.8477668,33.7177252 38.1580442,35.6708178 34.2467978,36.9908676 C30.3353386,38.3129929 26.1985251,39 22,39 L35.0405382,29 L48,29" id="Fill-7" fill="#B4B8F9"></path>
                </g>
                <path d="M68.1803977,15.8181818 L68.1803977,18.1448864 L65.4105114,18.1448864 L65.4105114,25.8082386 C65.4105114,26.608432 65.5797805,27.1162395 65.9183239,27.3316761 C66.2568672,27.5471128 66.6446474,27.6548295 67.0816761,27.6548295 C67.2848022,27.6548295 67.4663818,27.6425191 67.6264205,27.6178977 C67.7864591,27.5932764 67.9157192,27.5686554 68.0142045,27.5440341 L68.522017,29.8799716 C68.3804444,29.9353696 68.1373123,29.9999996 67.7926136,30.0738636 C67.4479149,30.1477276 67.0139704,30.1846591 66.490767,30.1846591 C65.8321463,30.1846591 65.2027729,30.0400109 64.6026278,29.7507102 C64.0024828,29.4614095 63.5131411,29.0336203 63.1345881,28.4673295 C62.756035,27.9010388 62.5667614,27.2024189 62.5667614,26.3714489 L62.5667614,18.1448864 L60.600142,18.1448864 L60.600142,15.8181818 L62.5667614,15.8181818 L62.5667614,12.7897727 L65.4105114,12.7897727 L65.4105114,15.8181818 L68.1803977,15.8181818 Z M79.490767,16.1044034 L78.5767045,18.6434659 C78.4720639,18.5880679 78.3104888,18.5249767 78.0919744,18.4541903 C77.8734601,18.383404 77.6134011,18.3480114 77.3117898,18.3480114 C76.6347031,18.3480114 76.0499551,18.5280522 75.5575284,18.8881392 C75.0651017,19.2482262 74.6834767,19.7067917 74.412642,20.2638494 C74.1418074,20.8209071 74.0033144,21.3918058 73.9971591,21.9765625 L73.9971591,30 L71.1534091,30 L71.1534091,15.8181818 L73.9602273,15.8181818 L73.9602273,18.0525568 L74.1264205,18.0525568 C74.3295465,17.3508488 74.763491,16.7676396 75.428267,16.3029119 C76.0930431,15.8381842 76.8070511,15.6058239 77.5703125,15.6058239 C77.9396325,15.6058239 78.2966365,15.6566046 78.6413352,15.7581676 C78.9860339,15.8597306 79.269175,15.9751414 79.490767,16.1044034 Z M89.7301136,30 L89.7301136,28.2365057 L89.6008523,28.2365057 C89.4408136,28.538117 89.1961427,28.8489567 88.8668324,29.1690341 C88.537522,29.4891114 88.1081939,29.7584033 87.5788352,29.9769176 C87.0494765,30.195432 86.4093314,30.3046875 85.6583807,30.3046875 C84.7843233,30.3046875 83.9902971,30.1369572 83.2762784,29.8014915 C82.5622597,29.4660258 81.9928999,28.9751453 81.5681818,28.3288352 C81.1434638,27.6825252 80.931108,26.9008095 80.931108,25.9836648 C80.931108,24.992656 81.181934,24.2017075 81.6835937,23.6107955 C82.1852535,23.0198834 82.8607912,22.5782448 83.7102273,22.2858665 C84.5596633,21.9934881 85.4983377,21.791904 86.5262784,21.681108 C87.0679478,21.6133993 87.577294,21.5564633 88.0543324,21.5102983 C88.5313708,21.4641333 88.919151,21.3810375 89.2176847,21.2610085 C89.5162183,21.1409795 89.665483,20.9393954 89.665483,20.65625 L89.665483,20.5362216 C89.665483,19.6190769 89.430045,18.9620048 88.9591619,18.5649858 C88.4882789,18.1679668 87.8804488,17.9694602 87.1356534,17.9694602 C86.261596,17.9694602 85.5598985,18.1679668 85.0305398,18.5649858 C84.5011811,18.9620048 84.1441771,19.4097986 83.959517,19.9083807 L81.2727273,19.2897727 C81.5681833,18.428026 82.0128995,17.7278673 82.6068892,17.1892756 C83.2008789,16.6506839 83.8871883,16.2567484 84.6658381,16.0074574 C85.4444878,15.7581664 86.2615961,15.6335227 87.1171875,15.6335227 C87.6896335,15.6335227 88.2882308,15.7012304 88.9129972,15.8366477 C89.5377635,15.9720651 90.1240503,16.2167359 90.671875,16.5706676 C91.2196997,16.9245993 91.6644159,17.4247127 92.0060369,18.0710227 C92.347658,18.7173328 92.5184659,19.551368 92.5184659,20.5731534 L92.5184659,30 L89.7301136,30 Z M89.665483,25.0511364 L89.665483,23.1214489 C89.5608423,23.2445555 89.3146326,23.3522723 88.9268466,23.4446023 C88.5390606,23.5369323 88.1251206,23.612334 87.6850142,23.6708097 C87.2449078,23.7292853 86.8925203,23.7769885 86.6278409,23.8139205 C85.7784048,23.9185611 85.0813237,24.130917 84.5365767,24.4509943 C83.9918297,24.7710717 83.7194602,25.2973448 83.7194602,26.0298295 C83.7194602,26.6699843 83.9548982,27.1577871 84.4257812,27.4932528 C84.8966643,27.8287185 85.5014168,27.9964489 86.2400568,27.9964489 C87.2987742,27.9964489 88.1343483,27.6963808 88.746804,27.0962358 C89.3592597,26.4960907 89.665483,25.8143978 89.665483,25.0511364 Z M107.789773,20.1946023 L105.066051,20.4346591 C104.899857,19.7760384 104.564396,19.2128338 104.059659,18.7450284 C103.554922,18.277223 102.865535,18.0433239 101.991477,18.0433239 C100.815809,18.0433239 99.8986775,18.4865012 99.2400568,19.3728693 C98.5814361,20.2592374 98.2521307,21.4379661 98.2521307,22.9090909 C98.2521307,24.404837 98.5783585,25.6051091 99.2308239,26.5099432 C99.8832892,27.4147773 100.803498,27.8671875 101.991477,27.8671875 C102.77936,27.8671875 103.436432,27.6625257 103.962713,27.253196 C104.488994,26.8438663 104.847537,26.2822005 105.038352,25.5681818 L107.78054,25.7897727 C107.546637,27.0947035 106.917264,28.1703319 105.892401,29.0166903 C104.867537,29.8630487 103.567243,30.2862216 101.991477,30.2862216 C100.649615,30.2862216 99.4924291,29.9723043 98.5198864,29.3444602 C97.5473436,28.7166162 96.797943,27.8471883 96.2716619,26.7361506 C95.7453809,25.6251128 95.4822443,24.349439 95.4822443,22.9090909 C95.4822443,21.4933641 95.7484585,20.2376949 96.2808949,19.1420455 C96.8133313,18.046396 97.5642707,17.1877399 98.5337358,16.5660511 C99.5032009,15.9443624 100.646537,15.6335227 101.963778,15.6335227 C103.508767,15.6335227 104.810601,16.0490015 105.869318,16.8799716 C106.928036,17.7109417 107.568181,18.8158075 107.789773,20.1946023 Z M119.515625,30 L114.945312,23.6661932 L113.477273,25.2819602 L113.477273,30 L110.633523,30 L110.633523,11.0909091 L113.477273,11.0909091 L113.477273,21.662642 L113.708097,21.662642 L118.832386,15.8181818 L122.239347,15.8181818 L116.828835,21.865767 L122.710227,30 L119.515625,30 Z M130.872159,30.2862216 C129.487209,30.2862216 128.291553,29.9892312 127.285156,29.3952415 C126.278759,28.8012518 125.504738,27.9626001 124.963068,26.8792614 C124.421399,25.7959226 124.150568,24.5217876 124.150568,23.0568182 C124.150568,21.6041594 124.415244,20.3207916 124.944602,19.2066761 C125.473961,18.0925607 126.227978,17.2185164 127.206676,16.584517 C128.185374,15.9505177 129.345637,15.6335227 130.6875,15.6335227 C131.776994,15.6335227 132.794148,15.8704995 133.738991,16.3444602 C134.683835,16.8184209 135.447085,17.5662828 136.028764,18.5880682 C136.610443,19.6098536 136.901278,20.945541 136.901278,22.5951705 L136.901278,23.7862216 L126.93892,23.7862216 C127.049716,25.0973077 127.440574,26.1052285 128.111506,26.8100142 C128.782437,27.5147999 129.699568,27.8671875 130.862926,27.8671875 C131.724673,27.8671875 132.420215,27.6779138 132.949574,27.2993608 C133.478933,26.9208078 133.860558,26.4114615 134.09446,25.7713068 L136.716619,26.4914773 C136.519649,27.168564 136.1688,27.7963986 135.664062,28.375 C135.159325,28.9536014 134.50687,29.4167833 133.706676,29.7645597 C132.906483,30.112336 131.961653,30.2862216 130.872159,30.2862216 Z M130.678267,18.0433239 C129.71188,18.0433239 128.905543,18.3572412 128.259233,18.9850852 C127.612923,19.6129293 127.194366,20.4962064 127.003551,21.6349432 L134.131392,21.6349432 C134.131392,20.6070024 133.82363,19.7514239 133.208097,19.0681818 C132.592563,18.3849398 131.749295,18.0433239 130.678267,18.0433239 Z M148.230114,16.1044034 L147.316051,18.6434659 C147.21141,18.5880679 147.049835,18.5249767 146.831321,18.4541903 C146.612807,18.383404 146.352748,18.3480114 146.051136,18.3480114 C145.37405,18.3480114 144.789302,18.5280522 144.296875,18.8881392 C143.804448,19.2482262 143.422823,19.7067917 143.151989,20.2638494 C142.881154,20.8209071 142.742661,21.3918058 142.736506,21.9765625 L142.736506,30 L139.892756,30 L139.892756,15.8181818 L142.699574,15.8181818 L142.699574,18.0525568 L142.865767,18.0525568 C143.068893,17.3508488 143.502838,16.7676396 144.167614,16.3029119 C144.83239,15.8381842 145.546398,15.6058239 146.309659,15.6058239 C146.678979,15.6058239 147.035983,15.6566046 147.380682,15.7581676 C147.725381,15.8597306 148.008522,15.9751414 148.230114,16.1044034 Z" id="tracker" fill="#282D32"></path>
            </g>
        </g>
    </g>
</svg>